<svg width="29" height="29" viewBox="0 0 29 29" fill="none" xmlns="http://www.w3.org/2000/svg">
<path d="M14.488 2.41666C7.818 2.41666 2.41675 7.82999 2.41675 14.5C2.41675 21.17 7.818 26.5833 14.488 26.5833C21.1701 26.5833 26.5834 21.17 26.5834 14.5C26.5834 7.82999 21.1701 2.41666 14.488 2.41666ZM22.8618 9.66666H19.2972C18.9184 8.17027 18.3584 6.7257 17.6297 5.36499C19.8338 6.12383 21.6911 7.65082 22.8618 9.66666ZM14.5001 4.88166C15.503 6.33166 16.2884 7.93874 16.808 9.66666H12.1922C12.7117 7.93874 13.4972 6.33166 14.5001 4.88166ZM5.14758 16.9167C4.95425 16.1433 4.83341 15.3337 4.83341 14.5C4.83341 13.6662 4.95425 12.8567 5.14758 12.0833H9.23175C9.13508 12.8808 9.06258 13.6783 9.06258 14.5C9.06258 15.3217 9.13508 16.1192 9.23175 16.9167H5.14758ZM6.13841 19.3333H9.703C10.0897 20.8437 10.6455 22.2937 11.3705 23.635C9.16475 22.879 7.30656 21.3513 6.13841 19.3333ZM9.703 9.66666H6.13841C7.30656 7.64868 9.16475 6.12094 11.3705 5.36499C10.6417 6.7257 10.0818 8.17027 9.703 9.66666ZM14.5001 24.1183C13.4972 22.6683 12.7117 21.0612 12.1922 19.3333H16.808C16.2884 21.0612 15.503 22.6683 14.5001 24.1183ZM17.3276 16.9167H11.6726C11.5638 16.1192 11.4792 15.3217 11.4792 14.5C11.4792 13.6783 11.5638 12.8687 11.6726 12.0833H17.3276C17.4363 12.8687 17.5209 13.6783 17.5209 14.5C17.5209 15.3217 17.4363 16.1192 17.3276 16.9167ZM17.6297 23.635C18.3547 22.2937 18.9105 20.8437 19.2972 19.3333H22.8618C21.6911 21.3492 19.8338 22.8762 17.6297 23.635ZM19.7684 16.9167C19.8651 16.1192 19.9376 15.3217 19.9376 14.5C19.9376 13.6783 19.8651 12.8808 19.7684 12.0833H23.8526C24.0459 12.8567 24.1667 13.6662 24.1667 14.5C24.1667 15.3337 24.0459 16.1433 23.8526 16.9167H19.7684Z" fill="#202759"/>
</svg>
