<svg width="84" height="84" viewBox="0 0 84 84" fill="none" xmlns="http://www.w3.org/2000/svg">
<path d="M51.149 25.2C52.367 26.915 53.249 29.239 53.249 31.5C53.249 33.1637 52.8537 34.8037 52.0955 36.2846C51.3374 37.7656 50.2382 39.0452 48.8885 40.018C47.5388 40.9908 45.9772 41.629 44.3325 41.8799C42.6878 42.1308 41.007 41.9873 39.4286 41.4612C37.8503 40.9351 36.4195 40.0414 35.2543 38.8538C34.0891 37.6663 33.2227 36.2188 32.7266 34.6308C32.2306 33.0427 32.119 31.3595 32.401 29.7198C32.6831 28.0802 33.3508 26.531 34.349 25.2M34.349 25.2L42.749 28L63.749 21L42.749 10.5L21.749 21M34.349 25.2L21.749 21M21.749 21V35M21.749 69.3V61.775C21.749 55.8845 26.2045 50.197 32.0775 49.0035L42.7525 59.276L53.2525 48.9685C59.2095 50.0885 63.7525 55.8285 63.7525 61.775V69.3C63.7525 71.5085 61.8695 73.3005 59.5525 73.3005H25.9525C23.632 73.3005 21.749 71.5085 21.749 69.3Z" stroke="white" stroke-width="3" stroke-linecap="round" stroke-linejoin="round"/>
</svg>
