<svg width="56" height="56" viewBox="0 0 56 56" fill="none" xmlns="http://www.w3.org/2000/svg">
<g filter="url(#filter0_d_1669_211)">
<path d="M18 11.5H10.5C9.17392 11.5 7.90215 12.0268 6.96447 12.9645C6.02678 13.9021 5.5 15.1739 5.5 16.5V26.5M18 11.5H38M18 11.5V6.5C18 5.17392 18.5268 3.90215 19.4645 2.96447C20.4021 2.02678 21.6739 1.5 23 1.5H33C34.3261 1.5 35.5979 2.02678 36.5355 2.96447C37.4732 3.90215 38 5.17392 38 6.5V11.5M5.5 26.5V41.5C5.5 42.8261 6.02678 44.0979 6.96447 45.0355C7.90215 45.9732 9.17392 46.5 10.5 46.5H45.5C46.8261 46.5 48.0979 45.9732 49.0355 45.0355C49.9732 44.0979 50.5 42.8261 50.5 41.5V26.5M5.5 26.5C5.5 26.5 15.5 31.5 28 31.5C40.5 31.5 50.5 26.5 50.5 26.5M38 11.5H45.5C46.8261 11.5 48.0979 12.0268 49.0355 12.9645C49.9732 13.9021 50.5 15.1739 50.5 16.5V26.5M28 21.5H28.025" stroke="#202759" stroke-width="3" stroke-linecap="round" stroke-linejoin="round" shape-rendering="crispEdges"/>
</g>
<defs>
<filter id="filter0_d_1669_211" x="0" y="0" width="56" height="56" filterUnits="userSpaceOnUse" color-interpolation-filters="sRGB">
<feFlood flood-opacity="0" result="BackgroundImageFix"/>
<feColorMatrix in="SourceAlpha" type="matrix" values="0 0 0 0 0 0 0 0 0 0 0 0 0 0 0 0 0 0 127 0" result="hardAlpha"/>
<feOffset dy="4"/>
<feGaussianBlur stdDeviation="2"/>
<feComposite in2="hardAlpha" operator="out"/>
<feColorMatrix type="matrix" values="0 0 0 0 0 0 0 0 0 0 0 0 0 0 0 0 0 0 0.25 0"/>
<feBlend mode="normal" in2="BackgroundImageFix" result="effect1_dropShadow_1669_211"/>
<feBlend mode="normal" in="SourceGraphic" in2="effect1_dropShadow_1669_211" result="shape"/>
</filter>
</defs>
</svg>
