<svg width="44" height="34" viewBox="0 0 44 34" fill="none" xmlns="http://www.w3.org/2000/svg">
<path d="M35.5975 18.0332C35.9423 18.0332 36.2307 17.9172 36.4627 17.6852C36.6947 17.4532 36.8099 17.1664 36.8083 16.8248C36.8066 16.4833 36.6906 16.1957 36.4603 15.9621C36.2299 15.7285 35.9431 15.6133 35.5999 15.6165H28.1638C27.8207 15.6165 27.5331 15.7317 27.3011 15.9621C27.0707 16.1925 26.9555 16.4801 26.9555 16.8248C26.9555 17.1696 27.0707 17.4564 27.3011 17.6852C27.5315 17.9139 27.8191 18.0299 28.1638 18.0332H35.5975ZM35.5975 11.339C35.9423 11.339 36.2307 11.2238 36.4627 10.9934C36.6947 10.763 36.8099 10.4754 36.8083 10.1307C36.8066 9.78589 36.6906 9.49911 36.4603 9.27033C36.2299 9.04156 35.9431 8.92556 35.5999 8.92233H28.1638C27.8207 8.92233 27.5331 9.03753 27.3011 9.26792C27.0707 9.49992 26.9555 9.7875 26.9555 10.1307C26.9555 10.4738 27.0707 10.7614 27.3011 10.9934C27.5315 11.2254 27.8191 11.3406 28.1638 11.339H35.5975ZM14.6861 20.0777C13.3601 20.0777 12.2372 20.1695 11.3173 20.3532C10.3957 20.5368 9.57 20.8333 8.84017 21.2425C8.21184 21.5808 7.73737 21.9506 7.41675 22.3517C7.09614 22.7529 6.93664 23.1815 6.93825 23.6374C6.93825 23.9967 7.08084 24.2988 7.366 24.5437C7.65117 24.7886 8.00884 24.911 8.439 24.911H20.9332C21.3633 24.911 21.721 24.7781 22.0062 24.5122C22.2913 24.2464 22.4339 23.9298 22.4339 23.5625C22.4339 23.1565 22.2817 22.7626 21.9772 22.3807C21.6727 21.9989 21.1909 21.6203 20.532 21.2449C19.8006 20.8341 18.9749 20.5368 18.0549 20.3532C17.135 20.1695 16.012 20.0777 14.6861 20.0777ZM17.2623 15.1235C17.9615 14.4259 18.3111 13.5672 18.3111 12.5473C18.3111 11.5275 17.9615 10.6688 17.2623 9.97117C16.563 9.27356 15.7043 8.92394 14.6861 8.92233C13.6679 8.92072 12.8091 9.27033 12.1099 9.97117C11.4107 10.672 11.0611 11.5307 11.0611 12.5473C11.0611 13.5639 11.4107 14.4235 12.1099 15.1259C12.8091 15.8284 13.6679 16.1772 14.6861 16.1723C15.7043 16.1675 16.563 15.8163 17.2623 15.1235ZM3.90292 33.8333C2.79125 33.8333 1.86245 33.4612 1.1165 32.7168C0.37056 31.9725 -0.0016059 31.0429 5.20834e-06 29.928V3.90533C5.20834e-06 2.79206 0.372977 1.86325 1.11892 1.11892C1.86487 0.374583 2.79287 0.00161111 3.90292 0H39.5971C40.7088 0 41.6368 0.372972 42.3811 1.11892C43.1254 1.86486 43.4984 2.79367 43.5 3.90533V29.9304C43.5 31.0421 43.127 31.9709 42.3811 32.7168C41.6351 33.4628 40.7071 33.8349 39.5971 33.8333H3.90292ZM3.90292 31.4167H39.5971C39.9676 31.4167 40.3084 31.262 40.6193 30.9527C40.9303 30.6433 41.0849 30.3018 41.0833 29.928V3.90533C41.0833 3.53317 40.9287 3.19161 40.6193 2.88067C40.31 2.56972 39.9693 2.41506 39.5971 2.41667H3.90292C3.53237 2.41667 3.19162 2.57133 2.88067 2.88067C2.56973 3.19 2.41506 3.53156 2.41667 3.90533V29.9304C2.41667 30.301 2.57134 30.6417 2.88067 30.9527C3.19 31.2636 3.53075 31.4183 3.90292 31.4167Z" fill="#1E1E1E"/>
</svg>
