<svg width="80" height="72" viewBox="0 0 80 72" fill="none" xmlns="http://www.w3.org/2000/svg">
<path d="M39.9661 40C43.6758 40 47.2336 38.525 49.8568 35.8995C52.48 33.274 53.9537 29.713 53.9537 26C53.9537 22.287 52.48 18.726 49.8568 16.1005C47.2336 13.475 43.6758 12 39.9661 12C36.2563 12 32.6985 13.475 30.0753 16.1005C27.4521 18.726 25.9784 22.287 25.9784 26C25.9784 29.713 27.4521 33.274 30.0753 35.8995C32.6985 38.525 36.2563 40 39.9661 40ZM39.9661 40C34.4014 40 29.0647 42.2125 25.1299 46.1508C21.1951 50.089 18.9846 55.4304 18.9846 61V71.5M39.9661 40C45.5307 40 50.8674 42.2125 54.8022 46.1508C58.737 50.089 60.9475 55.4304 60.9475 61V71.5M43.463 12C44.8757 6.176 50.5092 1.5 57.4506 1.5C65.0459 1.5 71.3683 7.765 71.4383 15.5C71.3683 23.235 65.0459 29.5 57.4506 29.5M57.4506 29.5H53.9537M57.4506 29.5C68.9485 29.5 78.4321 38.901 78.4321 50.5V57.5M36.4691 12C35.0564 6.176 29.4229 1.5 22.4815 1.5C14.8862 1.5 8.56377 7.765 8.49383 15.5C8.56377 23.235 14.8862 29.5 22.4815 29.5M22.4815 29.5H25.9784M22.4815 29.5C10.9836 29.5 1.5 38.901 1.5 50.5V57.5" stroke="white" stroke-width="3"/>
</svg>
